<?xml version="1.0" standalone="no"?>
<!DOCTYPE svg PUBLIC "-//W3C//DTD SVG 20010904//EN"
 "http://www.w3.org/TR/2001/REC-SVG-20010904/DTD/svg10.dtd">
<svg version="1.0" xmlns="http://www.w3.org/2000/svg"
 width="882.000000pt" height="250.000000pt" viewBox="0 0 882.000000 250.000000"
 preserveAspectRatio="xMidYMid meet">

<g transform="translate(0.000000,250.000000) scale(0.100000,-0.100000)"
fill="#000000" stroke="none">
<path d="M1000 1105 l0 -925 90 0 90 0 0 395 0 395 460 0 460 0 0 70 0 70
-457 2 -458 3 -3 388 -2 387 475 0 475 0 0 70 0 70 -565 0 -565 0 0 -925z"/>
<path d="M2530 1105 l0 -925 90 0 90 0 0 925 0 925 -90 0 -90 0 0 -925z"/>
<path d="M3220 1105 l0 -925 90 0 90 0 0 400 0 400 227 -2 228 -3 37 -60 c21
-33 52 -82 69 -110 17 -27 59 -94 92 -147 34 -53 116 -183 182 -287 l120 -190
103 -1 102 0 -26 42 c-14 22 -63 98 -109 167 -45 69 -112 173 -150 231 -38 58
-106 162 -152 231 -45 70 -83 132 -83 138 0 5 19 15 43 21 129 32 230 88 299
165 160 179 168 485 18 661 -43 51 -115 103 -182 133 -115 53 -200 61 -620 61
l-378 0 0 -925z m815 771 c125 -31 205 -90 258 -191 30 -57 32 -66 32 -170 0
-100 -3 -116 -29 -172 -35 -77 -104 -144 -189 -183 -85 -39 -209 -52 -482 -48
l-220 3 -3 380 c-1 209 0 386 3 393 8 22 535 12 630 -12z"/>
<path d="M4950 1105 l0 -925 75 0 75 0 0 93 c1 50 1 419 0 820 0 442 3 727 9
727 5 0 17 -21 27 -47 9 -27 27 -73 40 -103 12 -30 34 -82 47 -115 13 -33 111
-260 216 -505 106 -245 214 -497 241 -560 26 -63 67 -159 90 -212 l42 -98 82
0 82 0 64 153 c35 83 90 215 122 292 33 77 75 178 95 225 88 210 156 370 183
431 17 36 30 68 30 72 0 3 13 34 28 69 41 90 86 199 126 303 19 49 38 91 42
92 5 2 8 -366 6 -817 l-3 -820 80 0 81 0 0 925 0 926 -120 -3 -121 -3 -40 -95
c-22 -52 -51 -120 -64 -150 -13 -30 -56 -131 -95 -225 -82 -195 -151 -358
-314 -743 -64 -150 -116 -274 -116 -277 0 -14 -64 -145 -71 -145 -4 0 -20 37
-35 82 -30 91 -75 205 -124 313 -17 39 -37 84 -44 100 -43 97 -87 196 -106
240 -12 28 -33 75 -45 105 -13 30 -42 98 -65 150 -23 52 -52 120 -65 150 -13
30 -53 123 -89 205 -37 83 -81 183 -97 223 l-31 72 -119 0 -119 0 0 -925z"/>
<path d="M7807 2013 c-3 -10 -21 -58 -40 -108 -19 -49 -101 -263 -182 -475
-81 -212 -167 -437 -192 -500 -24 -63 -57 -149 -73 -190 -15 -41 -56 -147 -90
-235 -101 -260 -120 -310 -120 -317 0 -5 38 -8 86 -8 l85 0 16 38 c9 20 58
147 108 282 l92 245 425 3 424 2 26 -72 c15 -40 63 -167 106 -283 l80 -210 91
-3 c50 -1 91 -1 91 1 0 5 -89 239 -160 422 -17 44 -44 114 -60 155 -57 149
-173 449 -282 730 -33 85 -73 189 -88 230 -16 41 -49 127 -73 190 l-44 115
-110 3 c-99 2 -111 1 -116 -15z m154 -216 c27 -83 91 -256 174 -472 26 -66 55
-142 65 -170 9 -27 34 -94 54 -147 21 -54 35 -102 31 -108 -4 -6 -134 -10
-366 -10 -309 0 -359 2 -359 15 0 8 14 52 31 97 62 166 88 234 112 298 86 224
139 369 172 468 21 61 43 112 49 112 6 0 23 -37 37 -83z"/>
<path d="M339 1911 l-29 -29 0 -172 0 -172 29 -29 29 -29 221 0 c218 0 220 0
248 24 l28 24 3 206 3 206 -45 0 -46 0 0 -178 c0 -125 -4 -182 -12 -190 -12
-12 -95 -16 -122 -6 -14 5 -16 32 -16 190 l0 184 -131 0 -131 0 -29 -29z m209
-195 c2 -88 -1 -133 -9 -143 -9 -10 -30 -13 -73 -11 l-61 3 -3 143 -3 143 73
-3 73 -3 3 -129z"/>
<path d="M364 1274 c-46 -22 -54 -51 -54 -186 l0 -121 35 -33 c19 -18 35 -35
35 -38 0 -3 -65 -6 -145 -6 l-145 0 0 -45 0 -45 390 0 390 0 0 45 0 45 -235 0
-235 0 0 155 0 155 235 0 235 0 0 45 0 45 -237 0 c-194 0 -244 -3 -269 -16z"/>
<path d="M308 518 l-3 -93 -87 -3 -88 -3 0 -39 0 -39 88 -3 87 -3 3 -67 3 -68
44 0 44 0 3 68 3 67 207 5 c262 6 251 0 256 160 l4 110 -46 0 -45 0 -3 -92 -3
-93 -185 0 -185 0 -3 93 -3 92 -44 0 -44 0 -3 -92z"/>
</g>
</svg>
