<?xml version="1.0" standalone="no"?>
<!DOCTYPE svg PUBLIC "-//W3C//DTD SVG 20010904//EN"
 "http://www.w3.org/TR/2001/REC-SVG-20010904/DTD/svg10.dtd">
<svg version="1.0" xmlns="http://www.w3.org/2000/svg"
 width="300.000000pt" height="300.000000pt" viewBox="0 0 300.000000 300.000000"
 preserveAspectRatio="xMidYMid meet">

<g transform="translate(0.000000,300.000000) scale(0.100000,-0.100000)"
fill="#000000" stroke="none">
<path d="M0 1500 l0 -1500 1500 0 1500 0 0 1500 0 1500 -1500 0 -1500 0 0
-1500z m1514 1221 c14 -28 26 -59 26 -69 0 -10 -28 -54 -61 -97 -34 -44 -73
-104 -87 -134 -22 -48 -24 -62 -19 -136 6 -79 5 -83 -16 -89 -12 -3 -28 -6
-34 -6 -19 0 -53 75 -60 128 -7 59 11 102 77 192 67 90 82 129 74 188 -7 57 8
119 39 158 l22 29 6 -57 c3 -31 18 -79 33 -107z m-516 91 c11 -11 23 -55 35
-132 37 -231 79 -478 98 -583 l21 -107 -47 -93 c-29 -59 -51 -121 -62 -174
-15 -76 -15 -91 0 -178 26 -155 90 -260 191 -312 58 -30 105 -25 135 13 40 51
44 86 38 329 -9 331 -19 370 -109 416 -36 18 -38 22 -38 67 0 60 22 84 103
112 75 26 179 26 255 0 74 -26 102 -57 102 -115 0 -41 -3 -45 -42 -67 -89 -49
-96 -81 -100 -468 -2 -242 2 -261 63 -294 34 -18 40 -19 79 -6 96 32 177 142
214 291 32 130 16 231 -59 386 l-45 91 15 79 c9 43 40 226 69 407 60 367 58
361 133 353 51 -5 105 -43 122 -85 11 -27 7 -42 -38 -158 -28 -71 -75 -192
-105 -269 -39 -103 -58 -139 -69 -137 -26 4 -30 -18 -4 -27 55 -21 77 -77 53
-132 -5 -13 1 -19 25 -28 18 -6 41 -19 51 -28 22 -20 24 -75 3 -107 -14 -21
-13 -24 5 -41 27 -24 27 -84 0 -118 -25 -31 -25 -33 0 -64 29 -37 25 -70 -14
-109 -29 -29 -32 -36 -20 -51 18 -24 17 -74 -1 -101 -9 -12 -30 -25 -47 -30
-31 -8 -32 -9 -29 -59 2 -45 -1 -53 -25 -72 -16 -13 -41 -21 -64 -21 -34 0
-38 -3 -43 -30 -8 -35 -37 -67 -71 -76 -24 -6 -53 5 -102 36 -32 20 -73 5 -89
-33 -23 -56 -36 -185 -42 -443 l-6 -250 26 -27 c38 -37 36 -86 -2 -130 -25
-28 -30 -44 -33 -93 l-3 -59 -35 0 -35 0 -3 60 c-2 48 -8 65 -28 86 -38 39
-41 86 -10 132 25 37 26 42 26 195 0 174 -15 410 -31 487 -17 87 -58 107 -127
60 -20 -14 -45 -25 -55 -25 -34 0 -77 30 -83 58 -11 50 -13 52 -53 52 -68 0
-108 53 -88 115 6 17 -1 24 -36 40 -52 25 -66 57 -48 113 13 37 12 39 -19 71
-27 27 -31 37 -26 63 3 18 15 41 25 53 19 20 19 20 -5 48 -29 34 -32 85 -5
118 17 22 17 28 5 49 -21 39 -17 78 11 105 13 14 33 25 44 25 28 0 32 12 19
48 -16 41 0 76 47 103 35 21 38 39 6 39 -11 0 -22 12 -28 33 -6 17 -41 109
-78 202 -36 94 -78 200 -92 238 l-25 67 25 38 c42 65 135 94 175 54z m383
-139 c9 -29 8 -39 -15 -76 -13 -24 -32 -50 -41 -57 -14 -12 -16 -11 -10 12 9
37 10 127 1 173 l-8 40 31 -29 c17 -16 36 -44 42 -63z m269 -30 c0 -75 -3 -87
-37 -150 -84 -157 -85 -160 -73 -182 23 -44 59 -9 46 46 -5 18 1 37 24 71 16
25 30 50 30 55 0 23 30 -18 44 -60 22 -63 20 -139 -4 -192 -17 -37 -23 -42
-43 -36 -53 16 -106 24 -164 25 l-61 0 -12 49 c-9 37 -9 59 0 92 17 62 29 83
115 198 42 56 86 123 97 148 27 61 38 42 38 -64z m-873 45 c5 -7 31 -69 58
-138 26 -69 70 -181 96 -250 27 -69 49 -128 49 -132 0 -4 -11 -23 -24 -42 -27
-40 -31 -38 -76 39 -13 22 -52 83 -86 135 -33 52 -84 131 -113 175 -28 43 -51
91 -51 105 0 69 113 152 147 108z m1501 -2 c35 -18 57 -44 70 -83 11 -35 28
-4 -228 -410 -36 -56 -68 -102 -71 -103 -3 0 -11 10 -17 23 -7 12 -17 29 -23
37 -9 12 10 70 87 270 54 140 102 261 107 268 12 16 42 15 75 -2z m-1654 -168
c32 -52 248 -389 281 -439 33 -50 34 -55 18 -67 -10 -7 -25 -11 -34 -10 -10 2
-103 86 -208 187 -175 168 -191 186 -191 218 0 42 21 85 56 112 34 27 60 27
78 -1z m1834 -24 c29 -31 33 -40 30 -82 -3 -47 -3 -47 -198 -233 -195 -186
-195 -187 -222 -173 l-28 14 30 48 c37 58 109 171 219 343 78 122 86 130 110
124 14 -3 41 -21 59 -41z m-1898 -226 c256 -245 310 -300 304 -310 -4 -6 -10
-24 -13 -39 l-6 -27 -130 75 c-71 41 -146 84 -165 95 -148 83 -164 95 -173
127 -15 61 37 151 88 151 11 0 53 -32 95 -72z m1995 56 c32 -21 58 -89 50
-131 -6 -35 -2 -33 -330 -222 l-140 -80 -6 28 c-3 15 -9 33 -12 38 -4 6 48 64
116 130 287 279 273 269 322 237z m-2048 -268 c71 -40 151 -87 179 -104 28
-16 78 -45 110 -62 33 -18 63 -36 67 -40 9 -8 -12 -60 -25 -60 -29 0 -506 145
-522 159 -27 24 -19 121 14 156 13 14 29 25 36 25 8 0 71 -33 141 -74z m2140
52 c42 -48 48 -136 10 -166 -6 -5 -70 -26 -142 -47 -71 -21 -181 -53 -244 -71
-62 -19 -119 -34 -126 -34 -6 0 -17 12 -24 27 -10 21 -9 28 1 35 7 4 92 54
188 109 96 56 200 117 230 135 65 40 80 41 107 12z m-2203 -234 c121 -35 189
-55 321 -93 65 -19 71 -23 81 -56 6 -20 8 -38 4 -40 -4 -2 -117 2 -251 10
-134 8 -254 15 -267 15 -34 0 -64 55 -59 106 4 36 31 94 45 94 3 0 59 -16 126
-36z m2243 9 c11 -16 17 -46 17 -80 0 -87 -5 -90 -229 -102 -267 -15 -345 -17
-345 -9 1 43 15 68 44 77 17 5 96 28 176 51 80 23 179 53 220 65 96 30 96 30
117 -2z m-2062 -214 c127 -6 232 -13 234 -15 2 -2 -2 -20 -10 -41 l-14 -37
-110 -22 c-61 -12 -172 -32 -248 -44 -132 -22 -138 -22 -157 -5 -30 27 -44 91
-31 137 14 45 -7 44 336 27z m2063 -14 c24 -52 9 -117 -35 -157 -15 -14 -26
-16 -54 -8 -18 5 -126 25 -239 46 -113 20 -210 42 -216 48 -7 6 -15 26 -19 44
l-7 32 69 1 c37 1 122 5 188 9 66 3 161 7 211 8 88 2 91 1 102 -23z m-1820
-134 c12 -17 18 -32 14 -34 -4 -3 -68 -30 -142 -60 -74 -31 -178 -73 -230 -95
-105 -44 -118 -43 -150 11 -20 32 -26 83 -12 103 6 10 91 28 402 87 41 8 80
15 86 16 5 0 20 -12 32 -28z m1452 -6 c319 -58 310 -56 316 -81 11 -42 -5 -91
-36 -118 l-30 -25 -123 51 c-67 28 -142 59 -167 68 -93 37 -185 74 -188 76 -2
1 7 16 19 34 19 24 28 30 49 25 14 -3 86 -16 160 -30z m-1440 -87 c0 -13 3
-32 6 -44 4 -17 -8 -29 -73 -71 -43 -27 -129 -83 -191 -123 -109 -71 -113 -72
-137 -56 -33 22 -57 70 -53 108 3 30 8 34 123 80 66 27 163 67 215 88 52 22
98 39 103 40 4 0 7 -10 7 -22z m1335 -20 c55 -22 152 -62 215 -88 l115 -47 3
-37 c4 -42 -15 -77 -53 -102 -24 -16 -28 -14 -162 74 -76 49 -162 104 -191
122 -44 27 -53 37 -48 54 3 11 6 31 6 44 0 12 3 22 8 22 4 0 52 -19 107 -42z
m-1275 -83 c17 -9 30 -19 30 -24 0 -4 -74 -79 -164 -165 -111 -106 -171 -156
-186 -156 -29 0 -90 64 -90 94 0 19 30 43 153 123 147 98 219 143 225 143 2 0
16 -7 32 -15z m1267 -68 c71 -46 154 -100 186 -120 44 -29 57 -42 57 -62 0
-31 -46 -82 -83 -91 -25 -6 -38 3 -125 88 -53 52 -127 123 -164 158 -38 35
-68 67 -68 71 0 8 48 38 62 39 4 0 65 -38 135 -83z m-1222 -38 l16 -30 -69
-102 c-38 -56 -87 -128 -108 -159 -41 -60 -63 -70 -107 -47 -26 15 -56 50 -57
67 0 13 291 299 307 302 1 0 10 -14 18 -31z m1160 -90 c55 -53 117 -111 138
-129 20 -18 37 -39 37 -49 -1 -20 -29 -54 -57 -70 -45 -24 -66 -14 -109 52
-23 34 -72 106 -109 159 l-67 97 18 30 c21 36 13 41 149 -90z m-1037 26 c2 -2
-27 -70 -63 -151 -106 -239 -105 -238 -161 -223 -37 10 -86 57 -77 73 15 25
90 137 151 224 l66 93 40 -7 c23 -3 42 -8 44 -9z m910 -70 c166 -243 162 -236
150 -255 -17 -27 -62 -50 -100 -50 -32 0 -34 2 -78 103 -24 56 -61 139 -82
184 -21 46 -38 85 -38 87 0 6 49 14 74 12 12 -1 40 -31 74 -81z m-863 -7 l24
-23 -19 -95 c-47 -226 -51 -239 -72 -246 -30 -9 -83 4 -103 26 -18 20 -17 24
33 138 87 201 97 222 105 222 4 0 19 -10 32 -22z m724 -10 c8 -18 41 -91 73
-163 32 -71 58 -137 58 -147 0 -33 -92 -62 -127 -40 -6 4 -28 82 -47 172 l-36
165 26 23 c33 29 36 28 53 -10z m-594 -180 c-4 -120 -11 -185 -18 -190 -20
-13 -92 -9 -112 6 -18 13 -18 17 10 147 15 74 30 148 32 165 4 26 11 33 41 41
21 6 41 11 46 12 5 0 6 -76 1 -181z m471 161 c16 -5 24 -22 34 -71 7 -34 21
-100 31 -146 24 -104 24 -119 0 -132 -27 -14 -96 -13 -109 3 -6 6 -14 92 -18
191 l-7 178 24 -7 c13 -4 33 -11 45 -16z"/>
</g>
</svg>
