<svg width="1951" height="1784" xmlns="http://www.w3.org/2000/svg" xmlns:xlink="http://www.w3.org/1999/xlink" xml:space="preserve" overflow="hidden"><defs><clipPath id="clip0"><rect x="-1" y="1" width="1951" height="1784"/></clipPath></defs><g clip-path="url(#clip0)" transform="translate(1 -1)"><path d="M37.5888 127.941C-2.2823 103.638-11.9062 59.1584 15.5908 26.601 49.504-14.21 108.165-9.62452 131.995 35.772 156.285 81.1685 121.913 136.653 69.6689 136.653 59.5864 136.653 45.3796 132.985 37.5888 127.941ZM93.9578 121.063C132.912 100.886 140.245 54.5725 109.081 24.7669 82.959-0.453568 40.7965 5.50777 21.5488 37.1479-8.2399 85.7543 44.4628 146.741 93.9578 121.063Z" fill="#FF0000" fill-rule="evenodd" transform="matrix(1 0 0 -1 0 138)"/><path d="M-0.0553254 42.4863C-0.0553254 16.5776 1.78054-0.694967 4.53452-0.694967 7.28813-0.694967 9.124 8.85036 9.124 20.2138 9.124 37.4864 10.501 40.6683 17.3856 39.3044 21.5162 38.3956 29.3185 29.3045 33.9083 18.3957 43.5465-2.96765 58.2338-9.33144 50.4311 11.123 47.6775 17.4865 44.0058 26.123 41.7107 30.6683 38.4982 36.5771 39.4159 39.759 46.3005 43.8498 55.9387 50.2136 58.2338 71.5769 49.5134 80.2131 46.3005 83.3949 33.9083 85.6676 21.975 85.6676L-0.0553254 85.6676-0.0553254 42.4863Z" fill="#FF0000" fill-rule="evenodd" transform="matrix(1 0 0 -1 44 115)"/><path d="M-0.762038 875.379-0.762038-0.620753 881.238-0.620753 1763.24-0.620753 1763.24 875.379 1763.24 1751.38 881.238 1751.38-0.762038 1751.38-0.762038 875.379ZM1338.5 813.463C1345.38 810.711 1346.29 802.456 1346.29 732.743L1346.29 655.233 1258.32 656.15C1171.73 657.526 1169.89 657.526 1168.52 667.157 1167.6 672.661 1163.02 680.917 1157.98 685.044 1150.19 692.382 1145.61 692.841 1110.79 687.796 961.42 667.157 845.958 598.82 798.766 502.964 772.649 448.845 768.984 423.161 768.984 271.352L768.984 136.971 679.638 136.971 590.293 136.971 590.293 370.877 590.293 604.324 630.613 628.173C695.674 667.157 803.806 720.818 867.951 746.043 961.878 783.193 1048.02 804.29 1153.86 817.591 1177.68 820.343 1328.88 817.132 1338.5 813.463ZM404.729 602.03C512.86 562.129 571.966 480.033 571.966 369.501 571.966 251.631 495.908 161.737 372.198 131.926 338.293 123.671 321.798 122.753 276.438 124.588 188.926 127.798 123.405 154.858 73.4636 207.601 7.94346 276.856-8.551 390.598 34.06 479.115 51.0125 514.431 102.329 565.798 139.9 585.52 189.842 611.662 225.58 618.541 301.638 617.166 361.66 615.79 371.74 613.955 404.729 602.03ZM1103.46 598.82C1117.66 592.399 1137.36 579.557 1147.9 570.384 1158.44 561.67 1167.6 554.332 1168.52 554.332 1168.98 554.332 1168.98 564.422 1168.52 577.264L1166.69 600.196 1256.49 600.196 1346.29 600.196 1346.29 368.583 1346.29 136.971 1258.32 137.888 1169.89 139.264 1168.52 163.113 1167.14 186.962 1145.61 171.828C1103 141.099 1086.5 135.595 1038.39 133.302 983.413 131.008 943.551 141.557 905.98 168.617 789.144 252.548 773.107 451.597 874.824 553.415 918.351 596.985 966.002 614.414 1034.73 612.579 1070.47 611.204 1082.84 608.91 1103.46 598.82ZM1653.27 604.324C1672.06 599.279 1697.26 591.023 1709.17 585.52L1731.17 576.347 1731.17 514.889 1731.17 453.89 1692.68 471.777C1648.69 492.875 1598.29 505.716 1575.84 502.047 1552.47 498.378 1538.73 487.371 1538.73 471.777 1538.73 452.514 1555.22 442.424 1601.5 433.251 1655.57 422.244 1684.43 410.778 1707.8 391.057 1738.5 364.915 1746.74 343.817 1746.74 295.201 1746.74 246.586 1741.25 224.112 1720.63 193.842 1700.93 164.031 1672.98 143.85 1635.86 131.926 1574.93 112.663 1445.72 121.377 1398.98 147.52L1380.66 158.068 1379.28 218.609C1378.82 252.548 1379.74 279.149 1382.49 279.149 1384.32 279.149 1398.07 273.645 1412.73 267.224 1499.33 227.323 1593.71 237.871 1575.38 285.57 1569.43 301.164 1560.26 305.291 1507.11 315.84 1452.59 326.847 1426.93 337.396 1404.02 357.576 1374.7 383.26 1366.91 403.44 1366.91 453.432 1367.37 491.499 1368.74 500.213 1379.28 519.934 1401.27 562.588 1440.68 591.023 1497.95 606.617 1535.98 617.166 1612.04 615.79 1653.27 604.324Z" fill="#FF0000" fill-rule="evenodd" transform="matrix(1 0 0 -1 186 1784)"/><path d="M64.7722 203.145C23.0424 187.504 0.113807 152.082-0.344672 104.24-0.344672 37.0766 36.7997 0.275114 105.585-0.184978 136.309-0.184978 142.729 1.19493 162.448 13.6156 226.648 53.1776 226.648 153.003 162.906 193.024 145.022 204.065 134.934 206.825 110.171 207.745 93.6625 208.205 73.0267 206.365 64.7722 203.145Z" fill="#FF0000" fill-rule="evenodd" transform="matrix(1 0 0 -1 374 1516)"/><path d="M61.2221 195.972C10.8799 172.623-11.0879 126.383 3.55739 75.5641 20.4905 16.9626 88.6813-16.4586 141.312 7.80618 178.382 25.2033 203.096 64.5765 203.096 106.239 203.096 134.166 182.501 172.165 158.245 188.647 132.159 206.96 91.4274 210.165 61.2221 195.972Z" fill="#FF0000" fill-rule="evenodd" transform="matrix(1 0 0 -1 1169 1517)"/></g></svg>