<svg width="3205" height="686" xmlns="http://www.w3.org/2000/svg" xmlns:xlink="http://www.w3.org/1999/xlink" xml:space="preserve" overflow="hidden"><defs><clipPath id="clip0"><rect x="-1" y="0" width="3205" height="686"/></clipPath></defs><g clip-path="url(#clip0)" transform="translate(1 0)"><path d="M-0.508746 342.152-0.508746-0.348624 32.8631-0.348624 66.2349-0.348624 66.2349 145.908 66.2349 292.165 236.801 292.165 407.368 292.165 407.368 318.084 407.368 344.003 237.914 344.744 68.089 345.854 66.9765 489.519 66.2349 632.814 242.363 632.814 418.492 632.814 418.492 658.733 418.492 684.652 208.991 684.652-0.508746 684.652-0.508746 342.152Z" fill="#2F5597" fill-rule="evenodd" transform="matrix(1 0 0 -1 337 685)"/><path d="M-0.854676 342.152-0.854676-0.348624 32.6455-0.348624 66.1454-0.348624 66.1454 342.152 66.1454 684.652 32.6455 684.652-0.854676 684.652-0.854676 342.152Z" fill="#2F5597" fill-rule="evenodd" transform="matrix(1 0 0 -1 904 685)"/><path d="M-1.26444 342.152-1.26444-0.348624 32.1163-0.348624 65.4966-0.348624 65.4966 147.76 65.4966 295.868 149.69 295.127 234.254 294.017 247.977 271.8C255.766 259.582 267.264 241.438 273.569 231.071 279.874 221.074 295.452 196.265 307.692 176.641 320.302 157.017 350.715 108.881 375.195 70.3732L419.702 0.0216536 457.904-0.348624 495.736-0.348624 486.092 15.203C480.9 23.3488 462.726 51.4895 445.665 77.0382 428.975 102.587 404.124 141.095 390.03 162.57 375.936 184.046 350.715 222.554 333.654 248.103 316.964 274.022 302.87 296.979 302.87 299.201 302.87 301.052 309.917 304.754 318.818 306.976 366.664 318.825 404.124 339.56 429.716 368.071 489.059 434.349 492.026 547.652 436.392 612.82 420.444 631.703 393.739 650.957 368.889 662.066 326.236 681.69 294.71 684.652 138.934 684.652L-1.26444 684.652-1.26444 342.152ZM301.015 627.63C347.378 616.152 377.049 594.306 396.707 556.909 407.833 535.803 408.575 532.471 408.575 493.963 408.575 456.936 407.462 451.011 397.819 430.276 384.838 401.766 359.246 376.957 327.72 362.516 296.194 348.076 250.203 343.262 148.948 344.744L67.3512 345.854 66.2385 486.557C65.8675 563.944 66.2385 629.482 67.3512 632.074 70.3185 640.22 265.781 636.517 301.015 627.63Z" fill="#2F5597" fill-rule="evenodd" transform="matrix(1 0 0 -1 1160 685)"/><path d="M-1.91376 341.967-1.91376-0.348435 25.8923-0.348435 53.6979-0.348435 53.6979 34.068C54.0687 52.5715 54.0687 189.128 53.6979 337.526 53.6979 501.097 54.8102 606.567 57.0348 606.567 58.8883 606.567 63.3375 598.796 67.0448 589.174 70.3813 579.182 77.0548 562.159 81.8747 551.057 86.3236 539.954 94.4801 520.711 99.2997 508.499 104.119 496.286 140.452 412.28 179.38 321.613 218.68 230.945 258.72 137.688 268.73 114.373 278.369 91.0588 293.57 55.5321 302.097 35.9184L317.668-0.348435 348.069-0.348435 378.47-0.348435 402.198 56.2723C415.174 86.9883 435.565 135.837 447.429 164.333 459.664 192.828 475.235 230.206 482.65 247.599 515.276 325.314 540.486 384.525 550.496 407.099 556.799 420.422 561.618 432.264 561.618 433.744 561.618 434.854 566.438 446.327 572 459.279 587.2 492.586 603.884 532.923 618.713 571.411 625.757 589.544 632.802 605.087 634.285 605.457 636.138 606.197 637.25 470.011 636.509 303.109L635.397-0.348435 665.056-0.348435 695.087-0.348435 695.087 341.967 695.087 684.652 650.597 683.542 605.737 682.432 590.908 647.275C582.751 628.031 572 602.866 567.18 591.764 562.36 580.662 546.418 543.285 531.959 508.499 501.558 436.335 475.977 376.013 415.545 233.536 391.817 178.025 372.538 132.137 372.538 131.026 372.538 125.846 348.811 77.3663 346.216 77.3663 344.733 77.3663 338.801 91.0588 333.24 107.712 322.117 141.389 305.434 183.577 287.267 223.544 280.965 237.977 273.55 254.63 270.955 260.551 255.012 296.448 238.7 333.085 231.656 349.368 227.207 359.73 219.421 377.123 214.972 388.226 210.152 399.328 199.401 424.492 190.874 443.736 182.347 462.98 171.595 488.145 166.775 499.247 161.956 510.349 147.126 544.765 133.779 575.111 120.061 605.827 103.748 642.834 97.8166 657.637L86.3236 684.282 42.2049 684.282-1.91376 684.282-1.91376 341.967Z" fill="#2F5597" fill-rule="evenodd" transform="matrix(1 0 0 -1 1801 685)"/><path d="M255.701 677.823C254.59 674.123 247.92 656.364 240.879 637.865 233.839 619.736 203.454 540.56 173.439 462.125 143.424 383.69 111.556 300.444 102.293 277.136 93.3994 253.827 81.1712 222.009 75.2424 206.84 69.6841 191.671 54.4913 152.453 41.8925 119.895 4.46673 23.7007-2.57381 5.20179-2.57381 2.61189-2.57381 0.761967 11.5073-0.347988 29.2937-0.347988L60.7907-0.347988 66.7195 13.7111C70.0547 21.1108 88.2117 68.0981 106.739 118.045L140.83 208.69 298.315 209.8 455.429 210.54 465.064 183.901C470.622 169.102 488.408 122.115 504.342 79.1973L533.986 1.50194 567.707 0.391982C586.234 0.0219972 601.427 0.0219972 601.427 0.761967 601.427 2.61189 568.448 89.1869 542.139 156.893 535.839 173.172 525.834 199.07 519.905 214.24 498.784 269.366 455.8 380.36 415.41 484.324 403.181 515.772 388.359 554.25 382.801 569.419 376.872 584.588 364.644 616.406 355.751 639.714L339.446 682.262 298.686 683.372C262.001 684.112 257.554 683.742 255.701 677.823ZM312.766 597.907C322.772 567.199 346.487 503.192 377.243 423.277 386.877 398.859 397.623 370.74 401.329 360.381 404.664 350.392 413.927 325.603 421.338 305.994 429.12 286.015 434.308 268.256 432.826 266.036 431.343 263.817 383.172 262.337 297.203 262.337 182.703 262.337 164.175 263.077 164.175 267.886 164.175 270.846 169.363 287.125 175.662 303.774 198.636 365.191 208.271 390.349 217.164 414.028 249.031 496.903 268.671 550.55 280.899 587.178 288.681 609.746 296.833 628.615 299.056 628.615 301.279 628.615 307.579 614.926 312.766 597.907Z" fill="#2F5597" fill-rule="evenodd" transform="matrix(1 0 0 -1 2602 685)"/><path d="M10.5097 158.695-0.190791 147.978-0.190791 84.4126-0.190791 20.8473 10.5097 10.1297 21.2101-0.587497 102.756-0.587497C183.194-0.587497 183.932-0.587497 194.264 8.28223L204.595 17.1516 205.702 93.2819 206.809 169.413 190.205 169.413 173.232 169.413 173.232 103.63C173.232 57.4342 171.756 36.369 168.804 33.4124 164.376 28.9779 133.75 27.4996 123.788 31.195 118.622 33.0428 117.884 43.0213 117.884 101.413L117.884 169.413 69.547 169.413 21.2101 169.413 10.5097 158.695ZM87.6272 86.63C88.3652 54.1081 87.2585 37.4777 84.3065 33.782 80.9858 30.0862 73.237 28.9779 57.3705 29.7167L34.8626 30.8254 33.7556 83.6734 32.6486 136.521 59.5845 135.412 86.5205 134.304 87.6272 86.63Z" fill="#2F5597" fill-rule="evenodd" transform="matrix(1 0 0 -1 82.0002 204)"/><path d="M101.365 175.732C84.3214 167.561 81.3571 156.789 81.3571 106.646L81.3571 61.703 94.3251 49.4459C101.365 42.7601 107.293 36.446 107.293 35.3317 107.293 34.2174 83.2097 33.1031 53.5684 33.1031L-0.155863 33.1031-0.155863 16.3888-0.155863-0.325821 144.344-0.325821 288.845-0.325821 288.845 16.3888 288.845 33.1031 201.774 33.1031 114.703 33.1031 114.703 90.6746 114.703 148.246 201.774 148.246 288.845 148.246 288.845 164.96 288.845 181.675 201.033 181.675C129.153 181.675 110.628 180.561 101.365 175.732Z" fill="#2F5597" fill-rule="evenodd" transform="matrix(1 0 0 -1 0 456)"/><path d="M65.8078 117.822 64.6959 83.3439 32.4519 82.2317-0.162765 81.1195-0.162765 66.661-0.162765 52.2026 32.4519 51.0904 64.6959 49.9782 65.8078 25.139 66.9193-0.0708234 83.2268-0.0708234 99.534-0.0708234 100.646 25.139 101.758 49.9782 178.476 51.8319C275.579 54.0563 271.502 51.8319 273.355 111.149L274.837 151.929 257.789 151.929 241.111 151.929 239.999 117.822 238.887 83.3439 170.323 83.3439 101.758 83.3439 100.646 117.822 99.534 151.929 83.2268 151.929 66.9193 151.929 65.8078 117.822Z" fill="#2F5597" fill-rule="evenodd" transform="matrix(1 0 0 -1 15.0001 678)"/></g></svg>