<svg width="2067" height="1599" xmlns="http://www.w3.org/2000/svg" xmlns:xlink="http://www.w3.org/1999/xlink" xml:space="preserve" overflow="hidden"><defs><clipPath id="clip0"><rect x="-1" y="0" width="2067" height="1599"/></clipPath></defs><g clip-path="url(#clip0)" transform="translate(1 0)"><path d="M307.493 1591.93C242.858 1577.8 187.515 1548.32 140.655 1503.9 10.5774 1380.32-12.0446 1194.95 84.0996 1044.72 129.748 973.243 208.117 917.917 296.586 894.09 325.672 886.417 331.731 883.186 330.923 877.129 330.519 872.686 328.095 855.725 325.672 839.167 323.248 822.609 320.016 783.84 318.804 753.148 315.977 688.533 320.42 694.187 265.885 685.706 247.302 682.879 232.759 679.244 233.567 677.225 234.375 675.61 290.931 615.841 359.605 544.764L484.835 415.534 495.338 434.514C515.94 471.264 652.885 737.802 652.885 741.436 652.885 744.263 598.753 739.014 563.204 732.552 552.297 730.533 551.893 730.937 551.893 747.494 551.893 779.398 563.608 841.994 575.727 875.513 622.991 1004.74 724.387 1098.03 854.464 1133.17 887.993 1142.05 901.728 1143.26 955.86 1143.67 1030.59 1144.07 1068.97 1135.99 1128.76 1107.72 1177.23 1084.7 1208.74 1062.09 1247.12 1022.51 1294.79 972.436 1324.28 922.763 1344.88 857.34 1408.3 654.61 1292.77 428.86 1091.19 359.803 1022.51 336.38 1037.86 337.188 500.589 336.784 156.813 336.38 5.72984 335.168 2.49828 331.938-0.329471 329.111-1.13745 291.553-0.733642 216.842L0.478509 106.188 879.914 104.169C1363.46 102.958 1760.56 100.535 1762.58 98.919 1764.2 96.8999 1766.62 73.8807 1767.83 47.2272L1769.85-0.830464 1918.51 108.612C2000.52 168.784 2066.36 219.265 2065.15 220.476 2059.09 226.13 1769.85 438.149 1768.64 437.341 1768.24 436.937 1767.43 416.745 1767.43 392.514 1767.43 368.284 1765.81 345.668 1763.79 342.438 1760.56 337.188 1739.15 336.38 1609.88 337.188 1527.47 337.592 1459.2 338.803 1458.39 339.207 1457.59 340.015 1469.71 359.803 1485.46 382.822 1586.05 533.456 1618.77 701.86 1581.2 875.513 1526.26 1131.15 1329.12 1322.57 1070.99 1370.63 1011.2 1381.93 892.437 1381.13 835.882 1369.01 747.413 1350.03 660.56 1313.68 591.482 1266.44 521.595 1219.19 442.418 1130.74 398.386 1051.19 376.168 1011.2 375.763 1010.8 343.042 1016.86 256.997 1033.42 177.82 1110.95 160.045 1197.38 149.138 1248.67 162.469 1317.32 191.959 1363.36 207.713 1387.99 244.878 1423.53 269.52 1438.07 313.957 1463.92 372.936 1474.42 425.047 1465.53 454.133 1460.28 503.417 1439.68 503.417 1432.01 503.417 1429.99 496.146 1419.09 487.258 1408.59L471.1 1389.2 492.51 1386.78C536.946 1381.93 660.56 1375.07 666.62 1377.49 670.255 1379.11 673.083 1384.36 673.083 1389.2 673.083 1397.68 635.514 1556.4 630.263 1570.13 628.647 1574.57 623.395 1570.93 610.064 1555.99L592.29 1535.8 556.74 1554.78C496.549 1586.68 462.616 1595.57 394.346 1596.78 352.333 1597.99 327.691 1596.38 307.493 1591.93Z" fill="#00B0F0" fill-rule="evenodd" transform="matrix(1 0 0 -1 0 1598)"/></g></svg>