<?xml version="1.0" standalone="no"?>
<!DOCTYPE svg PUBLIC "-//W3C//DTD SVG 20010904//EN"
 "http://www.w3.org/TR/2001/REC-SVG-20010904/DTD/svg10.dtd">
<svg version="1.0" xmlns="http://www.w3.org/2000/svg"
 width="512.000000pt" height="512.000000pt" viewBox="0 0 512.000000 512.000000"
 preserveAspectRatio="xMidYMid meet">

<g transform="translate(0.000000,512.000000) scale(0.100000,-0.100000)"
fill="#000000" stroke="none">
<path d="M765 4524 c-160 -35 -297 -108 -413 -218 -322 -306 -378 -765 -140
-1137 113 -177 307 -314 526 -373 72 -19 87 -27 85 -42 -1 -11 -7 -53 -13 -94
-6 -41 -14 -137 -17 -213 -7 -160 4 -146 -131 -167 -46 -7 -82 -16 -80 -21 2
-4 142 -152 312 -328 l310 -320 26 47 c51 91 390 751 390 760 0 7 -134 -6
-222 -22 -27 -5 -28 -4 -28 37 0 79 29 234 59 317 117 320 368 551 690 638 83
22 117 25 251 26 185 1 280 -19 428 -89 120 -57 198 -113 293 -211 118 -124
191 -247 242 -409 157 -502 -129 -1061 -628 -1232 -170 -58 -132 -56 -1462
-57 -851 -1 -1225 -4 -1233 -12 -7 -7 -9 -100 -8 -285 l3 -274 2177 -5 c1197
-3 2180 -9 2185 -13 4 -5 10 -62 13 -128 l5 -119 368 271 c203 149 366 274
363 277 -15 14 -731 539 -734 537 -1 -1 -3 -51 -3 -111 0 -60 -4 -116 -9 -124
-8 -13 -61 -15 -381 -13 -204 1 -373 4 -375 5 -2 2 28 51 67 108 249 373 330
790 237 1220 -136 633 -624 1107 -1263 1226 -148 28 -442 26 -582 -4 -219 -47
-434 -137 -605 -254 -173 -117 -369 -336 -478 -533 -55 -99 -56 -100 -137 -85
-213 41 -409 233 -453 447 -27 127 6 297 79 411 39 61 131 149 192 185 110 64
256 90 385 68 72 -13 194 -64 194 -83 0 -5 -18 -32 -40 -58 l-40 -48 53 -6
c110 -12 416 -29 431 -23 9 4 16 17 16 29 0 21 -93 414 -106 448 -4 11 -17 2
-50 -35 l-44 -50 -88 47 c-149 79 -233 101 -402 104 -104 3 -165 -1 -215 -12z"/>
</g>
</svg>
