<svg width="1494" height="1495" xmlns="http://www.w3.org/2000/svg" xmlns:xlink="http://www.w3.org/1999/xlink" xml:space="preserve" overflow="hidden"><defs><clipPath id="clip0"><rect x="-1" y="0" width="1494" height="1495"/></clipPath></defs><g clip-path="url(#clip0)" transform="translate(1 0)"><path d="M536.21 1487.03C505.534 1473.58 489.987 1450.9 489.987 1419.39 489.987 1393.76 500.912 1372.75 520.662 1359.73L536.21 1349.64 536.21 1280.74 536.21 1212.26 471.077 1212.26 405.944 1212.26 405.944 1254.27C405.944 1293.77 405.104 1297.55 395.439 1306.79 383.253 1319.39 376.529 1319.81 362.242 1308.47 351.737 1300.07 351.317 1298.39 351.317 1255.95L351.317 1212.26 337.029 1212.26C310.556 1212.26 284.503 1186.21 277.78 1152.6L275.679 1140.84 234.078 1140.84C193.738 1140.84 192.057 1140.42 183.653 1129.91 172.307 1115.63 172.727 1108.91 185.333 1096.72 194.578 1087.06 198.78 1086.22 235.759 1086.22L275.679 1086.22 275.679 1021.1 275.679 955.978 233.658 955.978C197.099 955.978 190.376 954.717 183.232 947.575 172.727 937.072 172.727 926.148 182.812 913.544 189.956 904.301 194.578 903.461 233.237 902.201L275.679 900.52 275.679 835.819 275.679 771.118 209.285 771.118 142.472 771.118 132.387 786.664C119.36 806.41 98.3494 817.333 72.7165 817.333 45.8232 817.333 25.2326 807.25 12.2063 787.504-2.92145 764.396-5.02248 738.768 6.74345 714.82 19.3496 688.772 36.1583 677.429 65.9932 675.328 95.8282 673.227 116.839 682.47 131.546 704.737L142.472 720.702 208.865 720.702 275.679 720.702 275.679 656.001 275.679 591.301 233.237 589.62C194.578 588.36 189.956 587.52 182.812 578.277 172.727 565.673 172.727 554.749 183.232 544.246 190.376 537.104 197.099 535.843 233.658 535.843L275.679 535.843 275.679 470.722 275.679 405.601 235.759 405.601C198.78 405.601 194.578 404.761 185.333 395.098 172.727 382.914 172.307 376.192 183.653 361.907 192.057 351.404 193.738 350.984 233.658 350.984L275.258 350.984 278.2 335.439C279.461 326.616 284.503 313.592 289.125 306.029 297.53 292.165 326.524 275.36 342.072 275.36 350.896 275.36 351.317 273.679 351.317 233.766 351.317 193.433 351.737 191.753 362.242 183.35 376.529 172.007 383.253 172.427 395.439 185.031 405.104 194.274 405.944 198.475 405.944 235.447L405.944 275.36 471.077 275.36 536.21 275.36 536.21 208.978 536.21 142.177 520.662 132.094C478.221 103.945 479.061 41.3448 523.183 11.9354 564.364-15.7936 620.252 5.63355 632.438 54.3689 639.582 83.7783 632.858 104.785 607.225 128.733L586.635 148.479 586.635 211.919 586.635 275.36 653.869 275.36 721.103 275.36 721.103 231.666C721.103 190.913 721.943 187.132 730.347 181.25 742.954 172.427 753.039 172.847 763.124 182.93 770.268 190.072 771.528 196.795 771.528 233.346L771.528 275.36 836.661 275.36 901.794 275.36 901.794 209.399 901.794 143.017 886.666 130.834C836.241 90.5006 854.31 13.6159 917.342 0.171763 946.336-5.71005 985.416 14.8763 996.761 43.0253 1010.21 74.9556 998.022 116.969 970.708 133.354L956.421 141.757 956.421 208.558 956.421 275.36 1021.55 275.36 1086.69 275.36 1086.69 235.447C1086.69 198.475 1087.53 194.274 1097.19 185.031 1102.65 179.149 1110.22 174.528 1114 174.528 1117.78 174.528 1125.35 179.149 1130.81 185.031 1140.47 194.274 1141.31 198.475 1141.31 234.607L1141.31 274.52 1157.28 277.46C1189.22 283.342 1208.55 302.668 1211.91 332.498L1214.01 350.984 1255.61 350.984C1294.27 350.984 1298.05 351.824 1307.3 361.487 1313.18 366.949 1317.8 374.511 1317.8 378.293 1317.8 382.074 1313.18 389.636 1307.3 395.098 1298.05 404.761 1294.27 405.601 1254.77 405.601L1212.75 405.601 1212.75 470.722 1212.75 535.843 1256.45 535.843C1290.07 535.843 1301.83 537.524 1306.88 542.145 1322.01 557.69 1318.22 579.117 1298.47 586.259 1292.59 588.78 1270.74 590.461 1250.15 590.461L1212.33 590.461 1213.59 654.741 1214.85 718.602 1282.51 719.862 1349.74 720.702 1360.24 705.578C1373.27 685.411 1394.28 674.488 1419.91 674.488 1463.62 674.488 1492.19 702.637 1492.19 745.91 1492.19 789.184 1463.62 817.333 1419.91 817.333 1394.28 817.333 1373.27 806.41 1360.24 786.243L1349.74 771.118 1282.51 771.959 1214.85 773.219 1213.59 837.5 1212.33 901.36 1250.15 901.36C1270.74 901.36 1292.59 903.041 1298.47 905.561 1318.22 912.704 1322.01 934.13 1306.88 949.676 1301.83 954.297 1290.07 955.978 1256.45 955.978L1212.75 955.978 1212.75 1021.1 1212.75 1086.22 1254.77 1086.22C1294.27 1086.22 1298.05 1087.06 1307.3 1096.72 1320.32 1109.75 1320.32 1117.31 1307.3 1130.33 1298.05 1140 1294.27 1140.84 1254.77 1140.84L1212.75 1140.84 1212.75 1154.7C1212.75 1182.43 1189.22 1206.8 1158.12 1211L1141.31 1213.52 1141.31 1255.11C1141.31 1293.77 1140.47 1297.55 1130.81 1306.79 1125.35 1312.67 1117.78 1317.29 1114 1317.29 1110.22 1317.29 1102.65 1312.67 1097.19 1306.79 1087.53 1297.55 1086.69 1293.77 1086.69 1254.27L1086.69 1212.26 1021.55 1212.26 956.421 1212.26 956.421 1281.58 956.421 1350.48 969.028 1357.21C975.751 1360.57 986.256 1371.91 992.139 1381.57 1017.35 1424.85 995.921 1476.52 947.597 1489.55 905.576 1500.89 864.395 1472.74 857.251 1427.79 853.889 1405.52 866.076 1377.37 886.666 1360.99L901.794 1348.8 901.794 1280.74 901.794 1212.26 836.661 1212.26 771.528 1212.26 771.528 1256.37C771.528 1295.03 770.268 1301.75 763.124 1308.89 752.619 1319.39 741.693 1319.39 729.927 1310.15 722.364 1303.43 721.103 1297.55 720.263 1258.47L719.002 1214.36 653.869 1214.36 588.736 1214.36 587.475 1278.64 586.215 1343.34 607.225 1362.67C632.858 1387.04 639.582 1407.62 632.438 1437.45 626.555 1460.98 605.544 1483.25 583.693 1489.13 562.683 1495.01 553.859 1494.59 536.21 1487.03ZM390.817 1134.11C394.599 1130.75 397.54 1122.35 397.54 1115.63 397.54 1100.5 387.455 1090.42 372.327 1090.42 357.2 1090.42 347.114 1100.5 347.114 1115.63 347.114 1130.75 357.2 1140.84 372.327 1140.84 379.051 1140.84 387.455 1137.9 390.817 1134.11ZM1137.95 1133.69C1147.2 1125.29 1147.62 1108.07 1138.37 1097.98 1130.39 1089.16 1112.32 1087.9 1101.39 1096.3 1092.57 1102.6 1090.89 1124.45 1099.29 1134.11 1106.44 1142.94 1128.29 1142.52 1137.95 1133.69ZM612.688 1065.63C618.151 1058.49 619.832 1051.77 618.151 1044.63 613.528 1025.72 605.965 1023.2 547.135 1023.2 487.465 1023.2 477.38 1026.56 477.38 1047.99 477.801 1073.62 489.987 1078.24 552.178 1076.98 601.763 1075.72 604.704 1075.3 612.688 1065.63ZM1004.33 1068.99C1016.93 1058.91 1018.61 1042.53 1008.11 1030.76 1001.8 1023.62 991.299 1023.2 845.905 1023.2 706.816 1023.2 689.587 1024.04 682.443 1030.34 674.88 1037.06 672.358 1055.13 678.241 1063.53 687.066 1076.56 699.672 1077.4 845.485 1077.82 988.357 1077.82 993.4 1077.4 1004.33 1068.99ZM810.608 897.999C814.39 894.638 817.751 887.916 817.751 883.294 817.751 870.69 725.725 593.402 719.002 586.679 705.135 572.395 674.459 586.259 675.3 606.846 675.3 612.728 696.731 681.21 722.364 758.514 762.704 878.673 770.688 900.1 779.512 904.301 790.438 909.343 798.842 907.662 810.608 897.999ZM617.31 851.784C632.438 838.34 626.555 825.736 584.534 783.722L544.614 743.81 584.534 703.897C615.209 673.227 624.454 661.463 624.454 652.641 624.454 638.356 605.965 622.811 593.358 626.592 588.316 627.852 561.422 652.22 533.268 679.949 489.566 722.803 481.582 733.306 481.582 743.81 481.582 754.313 489.566 764.816 533.268 807.67 561.422 835.399 587.475 859.347 590.837 860.187 598.821 862.708 607.646 859.767 617.31 851.784ZM959.783 807.25C1000.96 765.657 1011.05 753.473 1011.05 743.81 1011.05 734.147 1001.38 721.963 961.884 681.63 934.57 654.321 908.097 629.953 902.634 627.852 892.549 624.071 877.421 629.113 871.538 638.356 861.873 652.22 868.597 664.825 905.996 701.796 927.006 722.383 943.815 741.289 943.815 743.81 943.815 746.331 927.006 765.237 905.996 785.823 868.597 822.795 861.873 835.399 871.538 849.263 877.001 857.246 891.288 863.128 899.693 861.027 904.315 859.767 931.209 835.399 959.783 807.25ZM468.976 670.286C479.481 659.783 479.481 648.859 469.396 636.255 462.253 627.432 457.21 626.172 424.013 624.911 391.237 623.651 385.774 624.491 375.269 632.474 362.242 642.977 360.141 659.363 371.067 671.126 376.529 677.429 384.513 678.689 419.391 678.689 455.109 678.689 461.832 677.429 468.976 670.286ZM1121.98 669.446C1131.23 656.422 1130.39 643.818 1119.88 634.155 1108.54 624.071 1048.45 620.71 1032.06 629.113 1016.93 637.096 1011.89 654.321 1021.13 667.765 1027.86 678.269 1029.54 678.689 1071.98 678.689 1112.32 678.689 1116.1 677.849 1121.98 669.446ZM609.747 458.118C622.353 445.934 622.773 439.212 611.427 424.928 603.023 414.004 602.183 414.004 547.976 414.004 485.364 414.004 477.38 417.365 477.38 441.733 477.38 464.84 487.885 468.622 547.976 468.622 597.14 468.622 600.082 468.202 609.747 458.118ZM1006.85 460.219C1018.19 448.875 1017.77 428.709 1006.01 420.726 998.022 414.844 975.331 414.004 843.384 414.004 706.816 414.004 689.587 414.844 682.443 421.146 672.358 429.969 672.779 449.716 683.284 460.219 691.268 468.202 697.151 468.622 845.065 468.622 992.98 468.622 998.863 468.202 1006.85 460.219ZM388.295 394.678C402.583 385.015 399.641 359.807 384.093 350.984 373.588 345.522 371.067 345.522 360.981 350.984 345.013 359.807 342.072 385.015 356.359 394.678 361.402 398.459 368.545 401.4 372.327 401.4 376.109 401.4 383.253 398.459 388.295 394.678ZM1136.27 394.678C1142.57 390.477 1145.52 384.175 1145.52 374.091 1145.52 348.043 1115.68 337.54 1099.71 357.706 1088.37 371.991 1088.79 378.713 1101.39 390.897 1113.16 403.081 1122.82 403.921 1136.27 394.678Z" fill="#00B0F0" fill-rule="evenodd" transform="matrix(1 0 0 -1 0 1494)"/></g></svg>