<?xml version="1.0" standalone="no"?>
<!DOCTYPE svg PUBLIC "-//W3C//DTD SVG 20010904//EN"
 "http://www.w3.org/TR/2001/REC-SVG-20010904/DTD/svg10.dtd">
<svg version="1.0" xmlns="http://www.w3.org/2000/svg"
 width="512.000000pt" height="512.000000pt" viewBox="0 0 512.000000 512.000000"
 preserveAspectRatio="xMidYMid meet">

<g transform="translate(0.000000,512.000000) scale(0.100000,-0.100000)"
fill="#000000" stroke="none">
<path d="M2060 4324 c-73 -32 -110 -86 -110 -161 0 -61 26 -111 73 -142 l37
-24 0 -164 0 -163 -155 0 -155 0 0 100 c0 94 -2 103 -25 125 -29 30 -45 31
-79 4 -25 -20 -26 -24 -26 -125 l0 -104 -34 0 c-63 0 -125 -62 -141 -142 l-5
-28 -99 0 c-96 0 -100 -1 -120 -26 -27 -34 -26 -50 4 -79 22 -23 32 -25 120
-25 l95 0 0 -155 0 -155 -100 0 c-87 0 -103 -3 -120 -20 -25 -25 -25 -51 -1
-81 17 -22 28 -24 120 -27 l101 -4 0 -154 0 -154 -158 0 -159 0 -24 37 c-31
47 -81 73 -142 73 -64 0 -113 -24 -144 -71 -36 -55 -41 -116 -13 -173 30 -62
70 -89 141 -94 71 -5 121 17 156 70 l26 38 158 0 159 0 0 -154 0 -154 -101 -4
c-92 -3 -103 -5 -120 -27 -24 -30 -24 -56 1 -81 17 -17 33 -20 120 -20 l100 0
0 -155 0 -155 -95 0 c-88 0 -98 -2 -120 -25 -30 -29 -31 -45 -4 -79 20 -25 24
-26 119 -26 l99 0 7 -37 c3 -21 15 -52 26 -70 20 -33 89 -73 126 -73 21 0 22
-4 22 -99 0 -96 1 -100 26 -120 34 -27 50 -26 79 4 23 22 25 32 25 120 l0 95
155 0 155 0 0 -158 0 -159 -37 -24 c-101 -67 -99 -216 6 -286 98 -66 231 -15
260 101 17 70 1 120 -60 177 l-49 47 0 151 0 151 160 0 160 0 0 -104 c0 -97 2
-106 22 -120 30 -21 54 -20 78 4 17 17 20 33 20 120 l0 100 155 0 155 0 0
-157 0 -158 -36 -29 c-120 -96 -77 -279 73 -311 69 -14 162 35 189 102 32 76
3 176 -62 215 l-34 20 0 159 0 159 155 0 155 0 0 -95 c0 -88 2 -98 25 -120 13
-14 31 -25 40 -25 9 0 27 11 40 25 23 22 25 32 25 118 l0 95 38 7 c76 14 122
60 130 131 l5 44 99 0 c92 0 101 2 123 25 14 13 25 31 25 40 0 9 -11 27 -25
40 -22 23 -31 25 -125 25 l-100 0 0 155 0 155 104 0 c80 0 108 4 120 15 36 37
27 88 -20 105 -14 6 -66 10 -115 10 l-90 0 3 153 3 152 161 3 160 2 25 -36
c31 -48 81 -74 142 -74 104 0 172 67 172 170 0 103 -68 170 -172 170 -61 0
-111 -26 -142 -74 l-25 -36 -160 2 -161 3 -3 153 -3 152 90 0 c49 0 101 4 115
10 47 17 56 68 20 105 -12 11 -40 15 -120 15 l-104 0 0 155 0 155 100 0 c94 0
103 2 125 25 31 31 31 49 0 80 -22 23 -31 25 -125 25 l-100 0 0 33 c0 66 -56
124 -130 134 l-40 6 0 99 c0 92 -2 101 -25 123 -13 14 -31 25 -40 25 -9 0 -27
-11 -40 -25 -23 -22 -25 -31 -25 -125 l0 -100 -155 0 -155 0 0 165 0 164 30
16 c16 8 41 35 55 58 60 103 9 226 -106 257 -100 27 -198 -40 -215 -147 -8
-53 21 -120 70 -159 l36 -29 0 -162 0 -163 -155 0 -155 0 0 105 c0 92 -3 108
-20 125 -25 25 -51 25 -79 3 -18 -16 -21 -30 -23 -123 l-3 -105 -155 0 -155 0
-3 153 -3 154 50 46 c61 58 77 107 60 178 -14 56 -64 109 -116 123 -50 14 -71
13 -113 -5z m-346 -840 c9 -8 16 -28 16 -44 0 -36 -24 -60 -60 -60 -36 0 -60
24 -60 60 0 36 24 60 60 60 16 0 36 -7 44 -16z m1778 -1 c22 -20 23 -61 1 -85
-19 -21 -62 -24 -88 -4 -21 15 -25 67 -5 90 17 21 69 20 92 -1z m-1250 -162
c13 -17 17 -33 13 -50 -11 -45 -29 -51 -169 -51 -142 0 -166 8 -166 59 1 61
30 72 178 69 118 -3 125 -4 144 -27z m932 8 c30 -24 34 -63 9 -91 -15 -17 -40
-18 -386 -18 -331 0 -372 2 -389 17 -18 16 -24 59 -10 79 21 31 51 33 398 34
340 0 352 -1 378 -21z m-461 -407 c9 -8 17 -24 17 -35 0 -30 -219 -690 -235
-706 -33 -34 -106 -1 -104 48 0 14 51 177 112 361 96 286 115 337 136 347 26
12 46 8 74 -15z m-460 -110 c36 -32 22 -62 -78 -162 l-95 -95 95 -95 c73 -73
95 -101 95 -122 0 -34 -44 -71 -74 -62 -12 3 -76 61 -143 127 -104 102 -123
127 -123 152 0 25 19 50 123 152 67 66 129 123 137 125 19 6 40 -1 63 -20z
m815 -106 c98 -99 122 -128 122 -151 0 -23 -23 -52 -117 -148 -65 -65 -128
-123 -141 -128 -24 -9 -60 3 -74 25 -23 33 -7 63 82 151 50 49 90 94 90 100 0
6 -40 51 -90 100 -89 88 -105 118 -82 151 13 19 47 33 67 28 11 -3 75 -61 143
-128z m-1168 -326 c25 -25 25 -51 1 -81 -17 -21 -29 -24 -108 -27 -78 -3 -91
-1 -116 18 -31 25 -36 64 -10 92 13 15 32 18 115 18 85 0 101 -3 118 -20z
m1554 -2 c22 -31 20 -61 -5 -84 -27 -24 -170 -32 -209 -12 -36 19 -48 60 -26
92 16 25 20 26 121 26 96 0 105 -2 119 -22z m-1219 -503 c30 -29 31 -45 4 -79
-20 -26 -22 -26 -151 -26 -149 0 -168 8 -168 66 0 55 25 64 168 64 117 0 124
-1 147 -25z m945 5 c27 -27 26 -75 -2 -94 -19 -14 -73 -16 -387 -16 -325 0
-366 2 -383 17 -24 21 -23 68 2 93 19 19 33 20 385 20 352 0 366 -1 385 -20z
m-1472 -156 c34 -23 27 -83 -10 -104 -25 -13 -31 -13 -55 0 -38 21 -45 81 -11
104 12 9 29 16 38 16 9 0 26 -7 38 -16z m1780 0 c15 -10 22 -25 22 -49 0 -62
-71 -87 -109 -39 -27 34 -26 50 4 79 28 29 51 31 83 9z"/>
</g>
</svg>
