<svg width="2070" height="1971" xmlns="http://www.w3.org/2000/svg" xmlns:xlink="http://www.w3.org/1999/xlink" xml:space="preserve" overflow="hidden"><defs><clipPath id="clip0"><rect x="-1" y="0" width="2070" height="1971"/></clipPath></defs><g clip-path="url(#clip0)" transform="translate(1 0)"><path d="M111.623 1964.63C68.7907 1953.32 27.1706 1915.76 10.1994 1874.16L0.905663 1851.13-0.306821 1170.93C-1.51894 413.993-3.13535 462.463 26.3624 419.244 43.3339 394.201 73.2356 369.966 99.9045 359.868 116.472 353.405 145.566 352.597 442.563 351.385 620.761 350.982 766.633 349.366 766.633 348.154 766.633 344.115 688.242 158.313 684.606 153.87 681.777 149.831 650.259 148.619 552.068 148.619L423.167 148.619 423.167 90.0509 423.167 31.4825 241.332 31.4825 59.4969 31.4825 59.4969 15.3259 59.4969-0.830614 782.797-0.830614 1506.1-0.830614 1506.1 191.03 1506.1 382.891 1338.4 382.891 1170.71 382.891 1170.71 532.341 1170.71 681.79 1089.9 682.598 1009.48 683.81 1089.49 834.875 1169.9 985.94 1171.52 1113.58C1173.14 1235.56 1173.94 1242.83 1183.64 1279.99 1209.1 1374.51 1266.48 1459.33 1344.46 1518.71 1378.41 1544.56 1450.74 1580.1 1491.95 1590.61 1665.3 1635.04 1841.48 1573.24 1950.99 1429.44 1977.25 1394.7 2007.96 1331.69 2022.1 1283.63L2033.42 1245.26 2034.63 630.089 2035.44 15.3259 2051.6 15.3259 2068.17 15.3259 2066.55 624.03C2065.34 1166.09 2064.53 1236.37 2058.87 1261.82 2043.52 1328.46 2019.28 1385.01 1984.12 1435.5L1964.72 1463.37 1962.7 1663.31 1960.68 1863.25 1946.95 1888.7C1929.97 1920.2 1900.88 1946.86 1870.57 1958.98L1847.54 1968.27 988.876 1969.08C317.299 1969.48 126.17 1968.67 111.623 1964.63ZM1868.15 1927.07C1892.8 1914.14 1919.87 1881.83 1927.95 1856.38 1933.61 1837.4 1934.42 1814.78 1933.61 1667.75L1932.4 1500.13 1906.54 1523.15C1892.39 1536.08 1867.34 1554.66 1850.77 1564.75L1821.28 1583.33 1821.28 1691.99 1821.28 1800.64 986.856 1800.64 152.435 1800.64 152.435 1225.06 152.435 649.477 645.41 649.477 1138.39 649.477 1138.39 516.184 1138.39 382.891 634.096 382.891C57.8805 382.891 106.37 379.66 67.1743 418.84 27.5749 458.424 30.8073 386.122 32.0195 1168.51L33.232 1855.17 42.5257 1872.14C55.052 1895.97 77.2763 1916.97 101.521 1928.28L122.129 1937.97 986.856 1936.76 1851.58 1935.95 1868.15 1927.07ZM1788.95 1683.51C1788.95 1637.06 1788.14 1598.68 1786.93 1598.68 1785.72 1598.68 1778.04 1601.51 1769.55 1605.15 1706.52 1631.4 1605.5 1641.9 1530.74 1629.38 1478.62 1620.5 1439.42 1607.97 1393.36 1584.95 1277.79 1526.79 1186.87 1413.69 1154.55 1288.47 1142.43 1240.41 1138.39 1191.53 1138.39 1085.71L1138.39 990.787 1056.36 837.298 974.734 683.81 579.545 682.598 184.761 681.79 184.761 1225.06 184.761 1768.33 986.856 1768.33 1788.95 1768.33 1788.95 1683.51ZM1203.85 252.426C1226.07 199.108 1243.45 155.082 1242.23 154.274 1241.42 153.466 1123.43 153.062 979.986 153.466L719.76 154.677 760.168 252.426 800.98 350.578 982.411 349.366 1163.84 348.558 1203.85 252.426ZM1473.77 249.598 1473.77 148.619 1380.02 148.619C1328.3 148.619 1283.85 150.234 1281.83 151.85 1279.41 153.466 1259.2 198.705 1236.58 252.83L1195.76 350.578 1334.77 350.578 1473.77 350.578 1473.77 249.598ZM1473.77 75.9135 1473.77 31.4825 962.611 31.4825 451.452 31.4825 451.452 73.0861C451.452 96.1095 452.665 116.305 454.281 117.517 455.493 119.133 685.818 120.344 965.44 120.344L1473.77 120.344 1473.77 75.9135Z" fill="#00B0F0" fill-rule="evenodd" transform="matrix(1 0 0 -1 0 1970)"/></g></svg>