<?xml version="1.0" standalone="no"?>
<!DOCTYPE svg PUBLIC "-//W3C//DTD SVG 20010904//EN"
 "http://www.w3.org/TR/2001/REC-SVG-20010904/DTD/svg10.dtd">
<svg version="1.0" xmlns="http://www.w3.org/2000/svg"
 width="512.000000pt" height="512.000000pt" viewBox="0 0 512.000000 512.000000"
 preserveAspectRatio="xMidYMid meet">

<g transform="translate(0.000000,512.000000) scale(0.100000,-0.100000)"
fill="#000000" stroke="none">
<path d="M279 4986 c-106 -28 -209 -121 -251 -224 l-23 -57 -3 -1684 c-3
-1874 -7 -1754 66 -1861 42 -62 116 -122 182 -147 41 -16 113 -18 848 -21 441
-1 802 -5 802 -8 0 -10 -194 -470 -203 -481 -7 -10 -85 -13 -328 -13 l-319 0
0 -145 0 -145 -450 0 -450 0 0 -40 0 -40 1790 0 1790 0 0 475 0 475 -415 0
-415 0 0 370 0 370 -200 2 -199 3 198 374 199 374 4 316 c4 302 6 320 30 412
63 234 205 444 398 591 84 64 263 152 365 178 429 110 865 -43 1136 -399 65
-86 141 -242 176 -361 l28 -95 3 -1523 2 -1522 40 0 41 0 -4 1507 c-3 1342 -5
1516 -19 1579 -38 165 -98 305 -185 430 l-48 69 -5 495 -5 495 -34 63 c-42 78
-114 144 -189 174 l-57 23 -2125 2 c-1662 1 -2135 -1 -2171 -11z m4347 -93
c61 -32 128 -112 148 -175 14 -47 16 -103 14 -467 l-3 -415 -64 57 c-35 32
-97 78 -138 103 l-73 46 0 269 0 269 -2065 0 -2065 0 0 -1425 0 -1425 1220 0
1220 0 0 -330 0 -330 -1248 0 c-1426 0 -1306 -8 -1403 89 -98 98 -90 -81 -87
1856 l3 1700 23 42 c31 59 86 111 146 139 l51 24 2140 -3 2140 -2 41 -22z
m-196 -603 c0 -115 -2 -210 -5 -210 -3 0 -22 7 -43 16 -156 65 -406 91 -591
60 -129 -22 -226 -53 -340 -110 -286 -144 -511 -424 -591 -734 -30 -119 -40
-240 -40 -502 l0 -235 -203 -380 -202 -380 -978 -3 -977 -2 0 1345 0 1345
1985 0 1985 0 0 -210z m-1448 -3543 c55 -132 98 -241 95 -243 -2 -2 -294 -3
-649 -2 l-644 3 100 242 101 243 449 -3 449 -2 99 -238z m668 -7 l0 -250 -232
0 c-128 0 -238 4 -243 8 -6 4 -56 116 -112 250 l-101 242 344 0 344 0 0 -250z
m0 -430 l0 -110 -1265 0 -1265 0 0 103 c0 57 3 107 7 110 3 4 573 7 1265 7
l1258 0 0 -110z"/>
<path d="M2381 1610 c-46 -11 -111 -58 -134 -98 -86 -147 17 -331 186 -332
254 -1 298 363 52 429 -45 12 -56 12 -104 1z m115 -86 c130 -62 85 -266 -59
-266 -152 0 -201 196 -66 264 42 22 81 23 125 2z"/>
<path d="M1105 3877 l-50 -24 0 -117 c0 -152 2 -150 -151 -142 l-112 5 -26
-58 c-14 -32 -26 -62 -26 -67 0 -5 29 -33 65 -63 73 -60 109 -111 100 -140 -5
-18 -93 -106 -148 -148 l-27 -21 20 -54 c30 -79 25 -76 114 -66 106 13 162 4
183 -28 13 -21 15 -43 9 -140 l-6 -115 55 -25 c31 -13 59 -24 63 -24 4 0 18
17 32 37 14 20 48 61 77 90 70 72 97 72 167 1 28 -29 65 -71 81 -92 l31 -39
62 28 c44 20 61 32 57 42 -3 8 -8 58 -11 111 -6 117 3 142 59 155 23 6 72 5
125 -1 100 -11 101 -10 128 71 l16 50 -33 25 c-59 44 -149 141 -149 159 0 10
38 55 85 100 47 45 85 88 85 95 0 7 -11 37 -25 66 l-24 52 -99 -6 c-55 -4
-111 -4 -125 0 -36 9 -48 58 -40 168 l6 88 -54 25 c-30 13 -61 25 -69 25 -8 0
-48 -36 -90 -80 -53 -57 -82 -80 -99 -80 -16 0 -46 24 -100 80 -42 44 -83 80
-91 80 -8 0 -37 -11 -65 -23z m107 -120 c25 -29 66 -64 90 -76 69 -37 106 -25
191 60 38 38 75 69 83 69 11 0 14 -20 14 -95 0 -169 30 -200 194 -200 55 -1
101 -5 103 -11 2 -5 -24 -36 -58 -69 -125 -123 -124 -184 6 -302 36 -33 65
-63 65 -66 0 -4 -47 -6 -104 -5 -120 1 -156 -13 -191 -72 -17 -30 -20 -51 -19
-144 l2 -108 -60 66 c-98 109 -166 130 -249 78 -24 -16 -64 -52 -88 -80 -23
-29 -46 -52 -50 -52 -3 0 -6 49 -6 109 0 96 -3 113 -21 138 -39 53 -75 65
-181 65 -54 0 -100 1 -104 4 -4 2 28 39 71 82 119 118 118 169 -7 288 -36 35
-63 67 -59 71 3 4 53 7 109 7 158 1 190 33 193 191 0 50 2 93 2 98 5 19 32 2
74 -46z"/>
<path d="M1297 3508 c-20 -5 -60 -30 -87 -55 -86 -77 -102 -189 -40 -286 96
-152 320 -136 396 27 81 175 -82 366 -269 314z m128 -88 c75 -36 105 -125 67
-200 -75 -150 -309 -70 -278 95 12 63 82 124 145 125 14 0 43 -9 66 -20z"/>
<path d="M2268 3799 l-105 -92 103 -93 c56 -52 106 -94 111 -94 5 0 20 11 32
24 l22 23 -57 52 -58 51 287 0 287 0 0 35 0 35 -280 0 c-154 0 -280 3 -279 8
0 4 22 26 49 49 l49 42 -20 25 c-11 14 -24 26 -28 26 -4 0 -55 -41 -113 -91z"/>
<path d="M2393 2924 c-17 -26 -17 -26 34 -75 l52 -49 -215 0 -214 0 0 -40 0
-40 213 0 212 -1 -53 -46 -53 -46 27 -28 27 -28 103 91 c57 50 104 94 104 99
0 10 -199 189 -211 189 -5 0 -16 -12 -26 -26z"/>
<path d="M3735 3785 c-33 -14 -61 -25 -63 -25 -1 0 -1 -52 0 -115 4 -153 6
-151 -148 -147 l-115 3 -24 -53 c-14 -29 -25 -58 -25 -64 0 -6 33 -41 73 -77
40 -35 78 -76 86 -89 19 -37 -5 -76 -95 -150 -81 -67 -80 -62 -43 -146 l18
-43 105 7 c116 8 160 -3 170 -39 8 -31 6 -133 -3 -191 l-8 -49 61 -28 61 -28
30 37 c58 73 144 152 165 152 25 0 107 -74 156 -141 l35 -48 52 20 c74 29 77
33 65 104 -5 33 -8 87 -6 119 4 47 9 63 29 79 22 18 34 19 139 13 l115 -6 23
55 c12 31 22 59 22 64 0 5 -32 35 -71 67 -39 33 -79 74 -90 92 l-21 32 21 34
c12 19 52 60 89 92 40 34 66 63 64 73 -2 8 -15 37 -28 63 l-25 49 -114 -3
c-152 -4 -151 -5 -147 146 l2 113 -27 12 c-16 7 -45 19 -66 27 l-38 13 -82
-84 c-45 -47 -89 -85 -97 -85 -8 0 -52 38 -97 85 -45 47 -83 85 -85 85 -2 0
-30 -12 -63 -25z m102 -126 c65 -69 98 -89 143 -89 44 0 66 13 141 87 38 37
72 62 78 59 7 -5 11 -42 11 -97 0 -165 33 -199 198 -199 120 0 126 -8 56 -66
-60 -49 -104 -118 -104 -163 0 -48 39 -109 104 -165 31 -26 56 -52 56 -57 0
-6 -28 -7 -74 -3 -187 17 -258 -55 -240 -243 3 -40 4 -73 1 -73 -3 0 -39 33
-79 74 -120 122 -175 122 -296 0 -40 -41 -74 -74 -76 -74 -1 0 -2 48 -2 108 2
171 -32 206 -199 208 -55 1 -104 2 -109 3 -5 0 25 34 67 74 122 117 123 174 6
289 -38 38 -69 73 -69 78 0 6 41 10 101 10 170 0 199 28 199 193 0 67 4 97 13
100 6 3 13 6 14 6 1 1 28 -26 60 -60z"/>
<path d="M3907 3406 c-161 -60 -204 -262 -80 -377 94 -88 229 -82 321 12 41
42 67 124 57 185 -8 59 -60 133 -112 162 -53 29 -135 37 -186 18z m154 -89
c98 -65 87 -207 -18 -258 -70 -34 -135 -15 -187 55 -30 40 -29 120 3 165 45
62 139 80 202 38z"/>
</g>
</svg>
