<?xml version="1.0" standalone="no"?>
<!DOCTYPE svg PUBLIC "-//W3C//DTD SVG 20010904//EN"
 "http://www.w3.org/TR/2001/REC-SVG-20010904/DTD/svg10.dtd">
<svg version="1.0" xmlns="http://www.w3.org/2000/svg"
 width="300.000000pt" height="299.000000pt" viewBox="0 0 300.000000 299.000000"
 preserveAspectRatio="xMidYMid meet">

<g transform="translate(0.000000,299.000000) scale(0.100000,-0.100000)"
fill="#000000" stroke="none">
<path d="M1674 2976 c-48 -21 -99 -80 -174 -201 -156 -252 -292 -416 -372
-450 -145 -60 -184 -85 -258 -162 -41 -43 -88 -95 -105 -115 -27 -33 -65 -51
-380 -179 -192 -78 -356 -146 -362 -152 -7 -5 -13 -20 -13 -33 0 -18 52 -60
281 -224 307 -221 283 -210 383 -174 48 17 50 17 85 -2 19 -10 52 -41 73 -69
49 -64 140 -244 209 -410 29 -71 57 -136 63 -144 17 -22 90 -5 179 41 97 51
219 164 403 374 140 160 189 204 270 241 114 52 205 21 359 -123 125 -117 224
-194 249 -194 13 0 29 7 36 15 11 13 1 41 -53 164 -37 82 -93 216 -125 297
-62 155 -83 213 -231 634 -168 481 -242 666 -305 763 -41 64 -64 85 -113 103
-48 17 -60 17 -99 0z m115 -111 c73 -84 155 -287 415 -1037 72 -207 200 -539
232 -601 27 -52 6 -41 -78 39 -107 102 -187 145 -279 152 -85 6 -143 -10 -217
-58 -71 -46 -118 -93 -294 -292 -77 -87 -173 -185 -215 -218 -80 -65 -167
-114 -187 -107 -7 3 -30 47 -51 98 -108 265 -209 440 -283 495 -21 15 -39 29
-41 31 -2 1 38 42 88 89 51 48 121 124 157 170 146 187 318 509 474 889 108
263 131 314 164 353 38 44 74 43 115 -3z m-423 -482 c-85 -199 -232 -478 -283
-542 l-18 -22 -110 82 c-61 45 -112 83 -113 85 -22 17 129 177 198 211 25 12
75 35 113 52 71 32 154 102 202 171 43 62 47 47 11 -37z m-443 -560 c53 -41
97 -76 97 -80 0 -14 -116 -146 -194 -220 -78 -76 -209 -173 -231 -173 -14 0
-450 314 -450 324 0 5 139 66 310 136 l310 127 30 -21 c17 -11 74 -53 128 -93z"/>
<path d="M171 551 c-10 -7 -5 -11 18 -16 49 -11 54 -30 46 -194 -12 -255 -27
-321 -71 -321 -7 0 -16 -5 -19 -10 -4 -6 30 -10 95 -10 65 0 99 4 95 10 -3 6
-14 10 -24 10 -36 0 -51 33 -54 116 -3 119 2 318 9 312 3 -4 49 -102 102 -218
53 -117 101 -212 107 -212 5 0 54 96 108 213 54 118 102 218 108 224 13 13 12
-391 -1 -416 -6 -10 -19 -19 -30 -19 -10 0 -22 -5 -25 -10 -4 -7 58 -10 179
-10 102 0 186 2 186 5 0 3 -11 10 -25 15 -30 12 -32 42 -7 114 l17 49 73 -1
c41 0 77 -4 82 -8 15 -17 51 -127 46 -141 -3 -7 -12 -13 -20 -13 -8 0 -18 -5
-21 -10 -4 -6 27 -10 86 -10 l92 0 -33 22 c-28 20 -41 45 -92 178 -32 85 -70
186 -84 223 -15 38 -30 65 -34 60 -4 -4 -44 -102 -89 -218 -88 -226 -110 -260
-159 -249 -55 13 -58 24 -65 259 -5 144 -3 223 4 236 5 11 23 22 40 26 54 10
30 24 -38 21 l-66 -3 -103 -220 -103 -219 -82 169 c-44 94 -92 194 -104 223
l-24 52 -53 0 c-29 0 -59 -4 -67 -9z m928 -259 l30 -82 -64 0 c-36 0 -65 4
-65 9 0 9 48 140 57 154 7 12 9 9 42 -81z"/>
<path d="M1246 456 c-9 -44 -7 -86 4 -86 6 0 10 7 10 16 0 8 13 29 29 45 24
24 38 29 75 29 l46 0 -2 -212 -3 -213 -35 -17 -35 -17 110 0 c75 -1 105 2 95
9 -8 5 -23 10 -33 10 -31 0 -38 46 -35 244 l3 191 43 3 c52 4 89 -17 104 -59
15 -42 32 -37 24 9 -3 20 -6 46 -6 57 0 19 -7 20 -194 20 l-194 0 -6 -29z"/>
<path d="M2236 459 c-8 -19 -47 -117 -86 -219 -40 -102 -78 -191 -83 -199 -6
-7 -23 -18 -37 -24 -24 -11 -23 -12 18 -15 23 -2 61 -2 85 0 l42 3 -30 15
c-34 18 -35 41 -6 119 l16 44 75 -2 c41 -1 78 -5 81 -9 13 -16 50 -133 44
-142 -3 -6 -12 -10 -20 -10 -8 0 -17 -4 -20 -10 -4 -6 27 -10 86 -10 l92 0
-34 23 c-26 18 -40 40 -66 107 -101 266 -135 355 -139 359 -2 2 -10 -11 -18
-30z m11 -111 c6 -18 20 -57 32 -85 l21 -53 -69 0 -68 0 30 85 c17 47 34 85
37 85 4 0 11 -15 17 -32z"/>
<path d="M1670 470 c0 -5 8 -10 19 -10 38 0 42 -20 39 -226 l-3 -199 -30 -15
c-28 -14 -20 -15 129 -18 88 -1 163 1 166 5 10 11 32 104 26 110 -2 3 -16 -13
-30 -36 -32 -50 -52 -61 -113 -61 -80 0 -78 -4 -81 202 -3 197 4 230 46 236
12 2 22 8 22 13 0 5 -43 9 -95 9 -57 0 -95 -4 -95 -10z"/>
<path d="M2510 471 c0 -6 9 -11 20 -11 10 0 24 -9 30 -19 12 -24 13 -380 1
-400 -5 -8 -22 -20 -38 -27 -25 -11 -14 -12 87 -13 63 -1 132 4 152 9 52 15
96 55 109 100 16 53 -10 107 -67 136 l-41 20 33 22 c45 29 61 80 39 125 -9 19
-28 40 -43 48 -35 17 -282 26 -282 10z m233 -31 c50 -40 44 -134 -9 -159 -14
-6 -43 -11 -64 -11 l-40 0 0 88 c0 49 3 92 7 95 14 15 81 6 106 -13z m8 -213
c64 -43 70 -141 12 -187 -29 -23 -101 -28 -121 -8 -8 8 -12 48 -12 115 l0 103
44 0 c28 0 55 -8 77 -23z"/>
<path d="M2912 454 c-27 -19 -29 -64 -4 -87 23 -21 41 -21 70 -1 28 19 29 57
2 84 -24 24 -38 25 -68 4z m60 -11 c22 -20 23 -41 1 -65 -20 -22 -31 -23 -55
-1 -22 20 -23 41 -1 65 20 22 31 23 55 1z"/>
<path d="M2920 411 c0 -31 14 -42 23 -18 4 10 6 10 6 0 1 -7 5 -13 10 -13 5 0
8 12 7 28 -2 19 -10 28 -25 30 -18 3 -21 -2 -21 -27z"/>
</g>
</svg>
